<svg width="24" height="25" viewBox="0 0 24 25" fill="none" xmlns="http://www.w3.org/2000/svg">
<path d="M21 8.50004L19 10.5L17.5 6.80004C17.3585 6.42138 17.1057 6.09446 16.7747 5.86239C16.4437 5.63032 16.0502 5.50399 15.646 5.50004H8.4C7.9925 5.49068 7.59188 5.60605 7.25177 5.8307C6.91166 6.05536 6.64832 6.37856 6.497 6.75704L5 10.5L3 8.50004" stroke="#2A5AA9" stroke-width="2" stroke-linecap="round" stroke-linejoin="round"/>
<path d="M7 14.5H7.01" stroke="#2A5AA9" stroke-width="2" stroke-linecap="round" stroke-linejoin="round"/>
<path d="M17 14.5H17.01" stroke="#2A5AA9" stroke-width="2" stroke-linecap="round" stroke-linejoin="round"/>
<path d="M19 10.5H5C3.89543 10.5 3 11.3954 3 12.5V16.5C3 17.6046 3.89543 18.5 5 18.5H19C20.1046 18.5 21 17.6046 21 16.5V12.5C21 11.3954 20.1046 10.5 19 10.5Z" stroke="#2A5AA9" stroke-width="2" stroke-linecap="round" stroke-linejoin="round"/>
<path d="M5 18.5V20.5" stroke="#2A5AA9" stroke-width="2" stroke-linecap="round" stroke-linejoin="round"/>
<path d="M19 18.5V20.5" stroke="#2A5AA9" stroke-width="2" stroke-linecap="round" stroke-linejoin="round"/>
</svg>
