<svg width="16" height="17" viewBox="0 0 16 17" fill="none" xmlns="http://www.w3.org/2000/svg">
<path d="M13.3333 5.16665H11.3333C10.9797 5.16665 10.6406 5.02617 10.3905 4.77612C10.1405 4.52607 10 4.18693 10 3.83331V1.83331" stroke="#9F9F9F" stroke-linecap="round" stroke-linejoin="round"/>
<path d="M6.00002 12.5C5.6464 12.5 5.30726 12.3595 5.05721 12.1095C4.80716 11.8594 4.66669 11.5203 4.66669 11.1666V3.16665C4.66669 2.81302 4.80716 2.47389 5.05721 2.22384C5.30726 1.97379 5.6464 1.83331 6.00002 1.83331H10.6667L13.3334 4.49998V11.1666C13.3334 11.5203 13.1929 11.8594 12.9428 12.1095C12.6928 12.3595 12.3536 12.5 12 12.5H6.00002Z" stroke="#9F9F9F" stroke-linecap="round" stroke-linejoin="round"/>
<path d="M2 5.56665V14.1C2 14.3829 2.11238 14.6542 2.31242 14.8542C2.51246 15.0543 2.78377 15.1666 3.06667 15.1666H9.6" stroke="#9F9F9F" stroke-linecap="round" stroke-linejoin="round"/>
</svg>
