<svg width="240" height="240" viewBox="0 0 240 240" fill="none" xmlns="http://www.w3.org/2000/svg">
<path d="M180 180C213.137 146.863 213.137 93.1371 180 60C146.863 26.8629 93.1371 26.8629 60 60C26.8629 93.1371 26.8629 146.863 60 180C93.1371 213.137 146.863 213.137 180 180Z" stroke="white" stroke-width="2"/>
<path d="M164.083 164.083C188.43 139.737 188.43 100.263 164.083 75.9169C139.737 51.5704 100.263 51.5704 75.9169 75.9169C51.5705 100.263 51.5705 139.737 75.9169 164.083C100.263 188.43 139.737 188.43 164.083 164.083Z" fill="#36A9E1"/>
<path d="M48.057 127.649L48.6074 131.386L51.0188 131.031L50.4031 126.857L52.2875 126.577L53.2437 133.055L43.0895 134.557L42.1613 128.288L44.0457 128.009L44.6334 131.973L46.7417 131.661L46.1913 127.925L48.0616 127.649H48.057Z" fill="white"/>
<path d="M49.7781 124.958C50.0813 124.324 50.3751 123.358 50.3471 122.37C50.3191 121.301 49.862 120.751 49.1904 120.77C48.5514 120.788 48.1969 121.283 47.7911 122.528C47.2454 124.249 46.3312 125.387 44.8386 125.425C43.0895 125.471 41.7089 124.049 41.6436 121.628C41.6109 120.471 41.8348 119.613 42.0913 118.997L43.9757 119.464C43.7891 119.879 43.5186 120.62 43.5466 121.623C43.5746 122.626 44.0457 123.102 44.5774 123.088C45.2304 123.069 45.5056 122.486 45.972 121.147C46.5924 119.319 47.5112 118.438 48.9618 118.4C50.683 118.354 52.1942 119.636 52.2735 122.453C52.3061 123.624 52.0169 124.79 51.7138 125.378L49.7828 124.958H49.7781Z" fill="white"/>
<path d="M41.8255 115.667L42.0587 113.377L46.5738 113.834V113.787C46.2053 113.521 45.8694 113.241 45.5289 112.976L42.3712 110.312L42.6604 107.481L46.667 111.301L52.8939 108.335L52.6187 111.031L47.9544 113.083L48.9432 114.072L52.2782 114.412L52.045 116.702L41.8302 115.667H41.8255Z" fill="white"/>
<path d="M42.8189 104.062C42.6977 104.645 42.1286 104.995 41.5922 104.883C41.0092 104.762 40.6547 104.225 40.776 103.628C40.8926 103.059 41.429 102.719 42.012 102.84C42.5484 102.952 42.9355 103.479 42.8189 104.048V104.062ZM43.6305 103.05L53.6867 105.116L53.2157 107.397L43.1594 105.331L43.6305 103.05Z" fill="white"/>
<path d="M51.8351 102.346C52.3248 101.842 52.9078 101.016 53.197 100.07C53.5095 99.048 53.2483 98.381 52.6093 98.1851C51.9983 97.9986 51.5039 98.3577 50.725 99.4072C49.6568 100.867 48.4301 101.655 47.0028 101.217C45.3284 100.704 44.4701 98.9174 45.1791 96.5993C45.5149 95.4938 46 94.7475 46.4385 94.2438L48.0803 95.2839C47.7725 95.6198 47.2827 96.2355 46.9889 97.1963C46.695 98.1571 46.9889 98.7588 47.5019 98.9128C48.1269 99.104 48.5747 98.6329 49.4423 97.5135C50.613 95.9743 51.7651 95.4379 53.1504 95.8577C54.5357 96.2821 55.4685 97.5508 55.2353 99.5658L55.7344 100.07C55.9769 99.5378 56.5227 99.1646 57.087 99.3372C58.0339 99.6264 58.1225 100.592 57.8473 101.497C57.7027 101.977 57.4602 102.35 57.1943 102.588L56.4527 102.043C56.6719 101.837 56.8725 101.548 56.9471 101.315C57.0264 101.054 57.0031 100.774 56.7232 100.69C56.448 100.606 56.1542 100.881 55.851 101.665L54.9834 100.811C54.9834 100.811 54.9741 100.839 54.9695 100.853C54.7129 101.697 54.0879 102.798 53.5375 103.349L51.8397 102.336L51.8351 102.346Z" fill="white"/>
<path d="M55.1467 87.905L53.6122 91.3566L55.8417 92.3454L57.5535 88.4881L59.2933 89.2623L56.6346 95.2466L47.2501 91.0768L49.8248 85.2837L51.5645 86.058L49.9367 89.7195L51.8864 90.587L53.4209 87.1354L55.1467 87.9004V87.905Z" fill="white"/>
<path d="M52.516 80.4142L55.8649 82.4945L57.8799 79.2481L54.531 77.1678L55.753 75.1995L64.4752 80.6148L63.2532 82.5831L59.6057 80.3162L57.5907 83.5626L61.2382 85.8294L60.0068 87.8071L51.2846 82.3918L52.516 80.4142Z" fill="white"/>
<path d="M57.9732 71.3981C57.6047 71.8646 56.9424 71.9252 56.5086 71.5847C56.0422 71.2162 55.9629 70.5772 56.3407 70.0968C56.6999 69.6397 57.3295 69.5744 57.796 69.9429C58.2297 70.2834 58.337 70.9317 57.9825 71.3841L57.9732 71.3981ZM59.1533 70.8524L67.2318 77.1912L65.7952 79.0242L57.7167 72.6855L59.1533 70.8524Z" fill="white"/>
<path d="M61.1636 68.5669C61.5927 67.9419 62.2924 67.079 63.146 66.1881C64.2001 65.0873 65.1003 64.4763 66.0238 64.3457C66.7981 64.2431 67.5444 64.4949 68.23 65.1479C69.1769 66.0528 69.1815 67.3448 68.8037 68.2077L68.8364 68.2404C69.5407 67.9232 70.3103 68.1098 71.1685 68.5762C72.2273 69.1452 73.4167 69.8402 73.8365 69.9708L72.1947 71.6873C71.8589 71.5987 71.0939 71.2069 69.9698 70.5492C68.855 69.8635 68.2953 69.9382 67.633 70.6098L67.1479 71.1136L70.0631 73.9028L68.4726 75.5633L61.1543 68.5575L61.1636 68.5669ZM65.9445 69.9615L66.5742 69.3038C67.3765 68.4689 67.4324 67.5734 66.7794 66.9484C66.0984 66.2954 65.3148 66.4306 64.5639 67.1909C64.1721 67.5967 63.9855 67.8626 63.8922 68.0025L65.9399 69.9615H65.9445Z" fill="white"/>
<path d="M71.2712 58.8978C71.691 58.4407 72.6378 57.6431 73.5753 56.9621C74.7228 56.1319 75.5064 55.7308 76.3693 55.6515C77.1715 55.5395 78.0018 55.8007 78.5475 56.5563C79.0839 57.298 79.1538 58.3008 78.4682 59.3223L78.4868 59.3456C79.6249 58.9165 80.847 59.1217 81.6259 60.1945C82.1716 60.9454 82.2556 61.7897 82.041 62.5826C81.7845 63.5015 80.9729 64.5043 79.3218 65.703C78.3982 66.3747 77.6613 66.8131 77.1995 67.0557L71.2758 58.8932L71.2712 58.8978ZM75.4411 60.7262L76.0567 60.2785C77.0409 59.5648 77.2788 58.7719 76.831 58.1562C76.3739 57.5265 75.651 57.5452 74.802 58.1609C74.3963 58.4547 74.177 58.6506 74.0371 58.7905L75.4411 60.7262ZM78.1137 64.411C78.3143 64.3037 78.5382 64.1405 78.86 63.9073C79.7089 63.2916 80.222 62.41 79.5969 61.5471C78.9906 60.7076 77.9971 60.9221 77.0596 61.6031L76.4206 62.0695L78.1184 64.411H78.1137Z" fill="white"/>
<path d="M82.0316 51.5888L84.7789 56.8222C85.5998 58.3847 86.612 58.8698 87.6614 58.3194C88.7389 57.755 88.9395 56.6869 88.0952 55.0824L85.348 49.8491L87.4002 48.7716L90.0776 53.8697C91.5515 56.6729 90.8332 58.7532 88.4637 59.9986C86.1689 61.202 84.1586 60.6422 82.6333 57.741L79.97 52.671L82.0316 51.5888ZM82.0923 50.8845C81.5792 51.1551 80.9542 50.9498 80.693 50.4508C80.4178 49.9237 80.623 49.2987 81.1501 49.0235C81.6492 48.7623 82.2369 48.9675 82.5167 49.4946C82.7779 49.9937 82.6194 50.6093 82.1063 50.8799L82.0923 50.8892V50.8845ZM84.8955 49.4106C84.3685 49.6858 83.7574 49.4759 83.4962 48.9768C83.221 48.4498 83.3983 47.8388 83.9393 47.5589C84.4524 47.2884 85.0541 47.4889 85.3293 48.016C85.5905 48.5151 85.4179 49.1401 84.9095 49.406L84.8955 49.4153V49.4106Z" fill="white"/>
<path d="M96.3184 56.2905L94.9238 52.3258L89.8537 47.6849L92.3538 46.808L94.1635 48.7856C94.7139 49.3827 95.0964 49.8304 95.5628 50.3762L95.5908 50.3668C95.5908 49.6858 95.6281 49.0468 95.6701 48.2539L95.8287 45.5813L98.2867 44.7184L97.0833 51.4863L98.5013 55.5255L96.3184 56.2951V56.2905Z" fill="white"/>
<path d="M103.128 43.5989L104.257 49.4013C104.593 51.1364 105.423 51.892 106.589 51.6635C107.783 51.4303 108.282 50.4648 107.933 48.6877L106.804 42.8853L109.075 42.4422L110.176 48.0953C110.782 51.2064 109.5 52.9928 106.869 53.5059C104.327 54.0003 102.559 52.8855 101.934 49.6718L100.838 44.0514L103.124 43.6036L103.128 43.5989ZM103.39 42.9412C102.82 43.0532 102.284 42.6754 102.177 42.1203C102.065 41.5373 102.438 40.9962 103.021 40.8843C103.576 40.777 104.08 41.1455 104.192 41.7285C104.299 42.2836 103.973 42.8246 103.403 42.9366H103.39V42.9412ZM106.501 42.3396C105.918 42.4515 105.395 42.0737 105.288 41.5186C105.176 40.9356 105.521 40.4039 106.118 40.2873C106.687 40.1753 107.205 40.5391 107.322 41.1222C107.429 41.6772 107.088 42.2229 106.519 42.3349H106.505L106.501 42.3396Z" fill="white"/>
<path d="M112.597 42.055L114.896 41.9478L115.111 46.4815H115.157C115.367 46.071 115.591 45.6979 115.806 45.32L117.975 41.8032L120.82 41.6679L117.634 46.1969L121.487 51.9154L118.777 52.0413L116.058 47.7315L115.227 48.8556L115.386 52.2045L113.087 52.3118L112.601 42.055H112.597Z" fill="white"/>
<path d="M122.737 49.6578C123.334 50.0263 124.262 50.4228 125.251 50.502C126.314 50.586 126.911 50.1942 126.963 49.5272C127.014 48.8882 126.557 48.4871 125.363 47.946C123.712 47.2184 122.681 46.1829 122.798 44.6997C122.937 42.9552 124.505 41.7378 126.916 41.9337C128.068 42.027 128.898 42.3395 129.486 42.6614L128.819 44.4851C128.427 44.2566 127.718 43.9067 126.72 43.8274C125.717 43.7482 125.195 44.1633 125.153 44.695C125.102 45.348 125.652 45.6838 126.935 46.2902C128.689 47.1064 129.463 48.1139 129.346 49.5552C129.23 50.9965 128.185 52.1812 126.17 52.3818L125.787 52.9788C126.356 53.1001 126.841 53.5525 126.795 54.1449C126.716 55.1337 125.787 55.4229 124.85 55.3482C124.351 55.3063 123.936 55.1523 123.646 54.9471L124.02 54.1075C124.267 54.2801 124.589 54.4154 124.836 54.434C125.111 54.4574 125.377 54.3687 125.4 54.0842C125.424 53.795 125.092 53.5712 124.262 53.4406L124.91 52.4097C124.91 52.4097 124.878 52.4097 124.864 52.4097C123.982 52.3398 122.774 51.9666 122.121 51.5468L122.746 49.6718L122.737 49.6578Z" fill="white"/>
<path d="M137.532 49.7978L133.829 49.0421L133.339 51.4303L137.471 52.2745L137.089 54.1402L130.671 52.8295L132.728 42.7687L138.936 44.0374L138.554 45.9031L134.631 45.1008L134.202 47.1904L137.905 47.946L137.527 49.7978H137.532Z" fill="white"/>
<path d="M144.295 45.6233L142.98 49.3407L146.581 50.614L147.896 46.8966L150.079 47.6709L146.655 57.3446L144.473 56.5703L145.905 52.5217L142.304 51.2484L140.872 55.297L138.675 54.5181L142.098 44.8443L144.295 45.6233Z" fill="white"/>
<path d="M155.065 50.0683L150.597 59.3129L148.498 58.2961L152.966 49.0515L155.065 50.0683ZM154.282 49.0281C153.745 48.7716 153.549 48.1326 153.787 47.6382C154.044 47.1018 154.655 46.8919 155.205 47.1578C155.728 47.4096 155.923 48.0113 155.667 48.5477C155.429 49.0421 154.818 49.2893 154.296 49.0375H154.282V49.0281Z" fill="white"/>
<path d="M157.733 51.5516C158.433 51.8361 159.431 52.3398 160.48 52.9835C161.782 53.7811 162.57 54.532 162.892 55.4043C163.158 56.1366 163.069 56.9248 162.575 57.7271C161.889 58.8419 160.63 59.1264 159.706 58.9351L159.683 58.9725C160.14 59.5928 160.121 60.3857 159.851 61.3233C159.52 62.4753 159.09 63.786 159.053 64.2291L157.029 62.9884C157.048 62.6433 157.267 61.813 157.668 60.577C158.102 59.3409 157.91 58.8139 157.113 58.3055L156.516 57.9416L154.408 61.3839L152.444 60.1805L157.733 51.5422V51.5516ZM157.388 56.519L158.167 56.9948C159.156 57.6012 160.042 57.4659 160.508 56.6963C161.003 55.8894 160.704 55.1524 159.804 54.5834C159.324 54.2895 159.025 54.1589 158.867 54.0983L157.388 56.5144V56.519Z" fill="white"/>
<path d="M169.324 59.3782C169.86 59.6954 170.84 60.4463 171.703 61.2206C172.757 62.1628 173.317 62.8438 173.578 63.674C173.858 64.4343 173.778 65.3019 173.158 65.9968C172.547 66.6778 171.581 66.9577 170.434 66.5052L170.415 66.5286C171.078 67.55 171.134 68.7861 170.252 69.7749C169.632 70.4699 168.829 70.7311 168.004 70.6891C167.052 70.6331 165.896 70.0501 164.375 68.6928C163.522 67.9325 162.938 67.3075 162.603 66.9064L169.319 59.3875L169.324 59.3782ZM165.387 67.2375C165.537 67.4101 165.742 67.5967 166.036 67.8579C166.819 68.5575 167.785 68.87 168.498 68.0771C169.189 67.3028 168.769 66.3793 167.906 65.6097L167.314 65.0826L165.387 67.2422V67.2375ZM168.424 63.8419L168.993 64.3503C169.902 65.1619 170.723 65.2226 171.232 64.6582C171.749 64.0798 171.581 63.3755 170.798 62.6759C170.425 62.34 170.187 62.1721 170.019 62.0602L168.424 63.8419Z" fill="white"/>
<path d="M176.628 74.9803L174.151 72.1257L172.309 73.7209L175.075 76.9066L173.638 78.152L169.347 73.2032L177.104 66.4772L181.255 71.2628L179.819 72.5082L177.193 69.4811L175.583 70.8803L178.06 73.7349L176.633 74.9709L176.628 74.9803Z" fill="white"/>
<path d="M183.088 73.6883L184.399 75.6146L177.519 80.2883L179.814 83.6652L178.2 84.7613L174.594 79.458L183.083 73.6883H183.088Z" fill="white"/>
<path d="M185.574 89.4069L183.83 86.0533L181.666 87.1774L183.611 90.9228L181.922 91.7997L178.9 85.988L188.009 81.2538L190.929 86.8742L189.241 87.7511L187.393 84.1969L185.5 85.1811L187.244 88.5347L185.57 89.4069H185.574Z" fill="white"/>
<path d="M192.17 89.8827C192.585 90.643 193.028 91.6645 193.42 92.7699C194.068 94.6076 194.161 95.9136 193.788 97.0984C193.396 98.3671 192.431 99.4212 190.719 100.028C188.867 100.685 187.351 100.461 186.232 99.8083C185.024 99.09 184.072 97.6814 183.401 95.7877C183 94.6543 182.785 93.824 182.664 93.255L192.165 89.892L192.17 89.8827ZM185.052 94.8735C185.075 95.0741 185.183 95.3772 185.276 95.6478C185.961 97.6348 187.51 98.5396 189.824 97.7234C191.838 97.0284 192.482 95.4752 191.82 93.5908C191.647 93.1011 191.493 92.8026 191.381 92.63L185.052 94.8688V94.8735Z" fill="white"/>
<path d="M196.423 103.321L186.428 105.653L185.901 103.381L195.896 101.049L196.423 103.321ZM196.741 102.056C196.605 101.478 196.978 100.923 197.51 100.797C198.089 100.662 198.639 101.002 198.774 101.595C198.905 102.159 198.56 102.691 197.981 102.826C197.445 102.952 196.871 102.63 196.741 102.066V102.052V102.056Z" fill="white"/>
<path d="M187.174 109.72L191.339 109.165L196.918 105.149L197.268 107.775L194.959 109.142C194.259 109.557 193.746 109.841 193.117 110.186V110.214C193.784 110.354 194.404 110.518 195.169 110.723L197.753 111.422L198.098 114.002L191.717 111.441L187.477 112.005L187.17 109.711L187.174 109.72Z" fill="white"/>
<path d="M192.324 122.29L192.263 118.512L189.828 118.554L189.898 122.775L187.995 122.808L187.888 116.259L198.154 116.091L198.257 122.425L196.354 122.458L196.288 118.451L194.157 118.484L194.217 122.262L192.328 122.295L192.324 122.29Z" fill="white"/>
<path d="M190.234 124.758C189.847 125.345 189.427 126.26 189.315 127.244C189.198 128.303 189.576 128.914 190.243 128.983C190.878 129.053 191.297 128.61 191.871 127.43C192.65 125.798 193.709 124.8 195.192 124.963C196.932 125.154 198.107 126.754 197.841 129.161C197.715 130.313 197.38 131.134 197.039 131.707L195.234 130.989C195.477 130.602 195.845 129.907 195.952 128.909C196.064 127.911 195.663 127.374 195.131 127.318C194.478 127.248 194.129 127.789 193.485 129.053C192.622 130.784 191.587 131.526 190.15 131.367C188.438 131.18 187.114 129.702 187.426 126.899C187.552 125.732 188 124.618 188.378 124.077L190.234 124.758Z" fill="white"/>
<path d="M196.363 136.95L186.307 134.884L186.778 132.603L196.834 134.669L196.363 136.95ZM197.179 135.938C197.3 135.355 197.869 135.005 198.406 135.117C198.989 135.238 199.343 135.775 199.222 136.372C199.105 136.941 198.569 137.281 197.986 137.16C197.45 137.048 197.063 136.521 197.179 135.952V135.938Z" fill="white"/>
<path d="M60.1375 172.123C59.4238 171.648 58.1878 170.659 57.2549 169.442C55.9629 167.758 55.4545 166.214 55.6224 164.735C55.767 163.275 56.6113 161.885 57.9779 160.859C61.0563 158.518 64.5219 159.409 66.8447 162.431C67.7589 163.62 68.23 164.717 68.3559 165.337L66.3503 166.181C66.1824 165.505 65.8745 164.74 65.1003 163.728C63.7663 161.988 61.77 161.433 59.7737 162.963C57.8706 164.423 57.6607 166.475 58.9761 168.187C59.3445 168.667 59.6944 169.008 59.8996 169.11L61.8306 167.627L60.7392 166.204L62.367 164.954L65.0023 168.392L60.1421 172.123H60.1375Z" fill="white"/>
<path d="M69.5127 175.351L66.4856 172.324L64.5312 174.274L67.9082 177.655L66.3829 179.181L61.1356 173.933L69.3634 165.71L74.4382 170.789L72.913 172.315L69.7039 169.106L67.9968 170.813L71.0239 173.84L69.508 175.351H69.5127Z" fill="white"/>
<path d="M67.7076 180.412L74.7833 171.177L77.2228 173.047L76.5464 177.903C76.3505 179.297 76.0147 180.864 75.6276 182.222L75.6695 182.254C76.4671 180.93 77.3813 179.652 78.4495 178.252L80.5064 175.566L82.4234 177.035L75.3477 186.27L73.1555 184.591L73.9111 179.516C74.121 178.108 74.4288 176.457 74.8067 175.029L74.7553 175.011C73.8738 176.27 72.9083 177.595 71.7515 179.101L69.62 181.881L67.7029 180.412H67.7076Z" fill="white"/>
<path d="M85.7538 186.653L82.0457 184.521L80.6697 186.914L84.8116 189.297L83.7388 191.168L77.3068 187.469L83.0998 177.385L89.322 180.962L88.2492 182.833L84.3125 180.571L83.1091 182.665L86.8173 184.796L85.7491 186.653H85.7538Z" fill="white"/>
<path d="M89.9889 181.261L92.4144 182.31L88.6736 190.958L92.9181 192.796L92.0412 194.825L85.3713 191.937L89.9889 181.261Z" fill="white"/>
<path d="M107.345 194.335C107.592 192.959 107.905 191.298 108.268 189.643L108.217 189.633C107.545 191.004 106.72 192.52 105.987 193.756L103.632 197.884L101.626 197.446L101.374 192.796C101.3 191.364 101.267 189.661 101.323 188.122L101.291 188.113C100.885 189.633 100.451 191.373 100.055 192.772L98.9071 197.045L96.533 196.522L99.7513 185.323L103.17 186.074L103.45 190.109C103.52 191.485 103.557 192.996 103.52 194.381L103.571 194.391C104.182 193.145 104.896 191.732 105.544 190.547L107.587 187.04L110.941 187.777L109.071 199.274L106.561 198.724L107.349 194.339L107.345 194.335Z" fill="white"/>
<path d="M114.337 187.921L113.996 194.61C113.893 196.611 114.598 197.665 115.946 197.735C117.326 197.805 118.133 196.882 118.236 194.829L118.576 188.141L121.198 188.276L120.867 194.792C120.685 198.379 118.786 199.993 115.75 199.834C112.821 199.685 111.179 197.978 111.37 194.27L111.701 187.786L114.337 187.921ZM114.803 187.273C114.15 187.24 113.66 186.681 113.693 186.042C113.726 185.37 114.29 184.88 114.962 184.913C115.601 184.946 116.058 185.487 116.02 186.158C115.988 186.797 115.479 187.306 114.822 187.273H114.803ZM118.39 187.455C117.718 187.422 117.247 186.863 117.28 186.224C117.312 185.552 117.839 185.058 118.53 185.095C119.183 185.127 119.659 185.673 119.626 186.345C119.593 186.984 119.066 187.492 118.413 187.46H118.395L118.39 187.455Z" fill="white"/>
<path d="M121.799 188.425C122.746 188.178 123.992 187.973 125.316 187.842C127.513 187.632 128.978 187.889 130.177 188.621C131.464 189.4 132.359 190.753 132.555 192.796C132.77 195.011 132.108 196.62 131.081 197.67C129.957 198.803 128.152 199.461 125.881 199.68C124.523 199.811 123.553 199.82 122.891 199.797L121.795 188.425H121.799ZM125.34 197.618C125.568 197.646 125.927 197.614 126.254 197.581C128.628 197.371 130.046 195.916 129.78 193.15C129.566 190.743 128.036 189.61 125.783 189.824C125.2 189.88 124.827 189.969 124.607 190.044L125.34 197.618Z" fill="white"/>
<path d="M134.552 186.601L136.179 193.094C136.665 195.034 137.649 195.841 138.955 195.51C140.293 195.174 140.797 194.055 140.298 192.059L138.67 185.566L141.217 184.927L142.803 191.256C143.675 194.736 142.332 196.835 139.384 197.572C136.539 198.285 134.472 197.129 133.567 193.533L131.991 187.24L134.552 186.601ZM134.808 185.846C134.174 186.004 133.539 185.613 133.386 184.992C133.222 184.339 133.614 183.71 134.267 183.542C134.887 183.388 135.48 183.77 135.643 184.423C135.797 185.044 135.461 185.678 134.822 185.836H134.803L134.808 185.846ZM138.288 184.978C137.635 185.141 137.019 184.745 136.865 184.125C136.702 183.472 137.061 182.847 137.733 182.679C138.367 182.52 138.978 182.898 139.146 183.551C139.3 184.171 138.945 184.81 138.311 184.969H138.292L138.288 184.978Z" fill="white"/>
<path d="M141.903 184.815C142.635 184.372 143.764 183.803 145.06 183.276C146.66 182.627 147.878 182.418 148.89 182.711C149.739 182.963 150.392 183.574 150.793 184.568C151.348 185.944 150.755 187.282 149.962 187.991L149.981 188.038C150.853 188.038 151.562 188.588 152.234 189.47C153.06 190.552 153.969 191.821 154.342 192.152L151.847 193.159C151.544 192.912 150.937 192.152 150.079 190.953C149.249 189.727 148.633 189.545 147.635 189.932L146.898 190.23L148.614 194.47L146.198 195.445L141.898 184.806L141.903 184.815ZM146.194 188.476L147.155 188.089C148.372 187.6 148.843 186.699 148.465 185.753C148.064 184.759 147.192 184.535 146.063 184.974C145.471 185.211 145.154 185.398 144.99 185.501L146.194 188.476Z" fill="white"/>
<path d="M150.004 181.265L152.318 179.987L156.87 188.239L160.919 186.004L161.987 187.94L155.625 191.452L150.004 181.27V181.265Z" fill="white"/>
<path d="M158.186 176.461L162.113 181.886C163.288 183.509 164.501 183.887 165.588 183.099C166.707 182.287 166.754 181.06 165.551 179.4L161.623 173.975L163.745 172.436L167.57 177.721C169.674 180.627 169.207 183.075 166.749 184.857C164.375 186.578 162.024 186.275 159.846 183.271L156.04 178.015L158.176 176.466L158.186 176.461ZM158.139 175.664C157.607 176.046 156.875 175.92 156.502 175.403C156.105 174.857 156.236 174.124 156.782 173.728C157.299 173.355 157.994 173.49 158.386 174.036C158.759 174.554 158.685 175.272 158.153 175.654L158.139 175.664ZM161.045 173.56C160.499 173.957 159.781 173.817 159.408 173.299C159.011 172.753 159.114 172.04 159.674 171.638C160.205 171.251 160.914 171.382 161.306 171.923C161.679 172.441 161.591 173.168 161.059 173.551L161.045 173.56Z" fill="white"/>
<path d="M165.289 166.96C165.602 167.207 166.068 167.31 166.572 166.816C167.09 166.312 167.024 165.845 166.796 165.486L167.757 164.544C168.61 165.468 168.722 166.643 167.547 167.79C166.339 168.97 165.191 168.812 164.3 167.921L165.289 166.955V166.96ZM178.895 173.215C178.508 173.98 177.673 175.323 176.577 176.396C175.056 177.879 173.587 178.57 172.094 178.574C170.63 178.607 169.147 177.931 167.967 176.694C165.28 173.915 165.746 170.37 168.475 167.706C169.548 166.657 170.583 166.06 171.18 165.859L172.258 167.753C171.609 168 170.882 168.397 169.968 169.288C168.4 170.817 168.083 172.865 169.842 174.67C171.516 176.387 173.582 176.349 175.126 174.843C175.56 174.418 175.854 174.036 175.933 173.817L174.235 172.077L172.953 173.332L171.516 171.862L174.618 168.835L178.9 173.22L178.895 173.215Z" fill="white"/>
<path d="M172.687 162.147C172.29 162.669 171.549 162.758 171.04 162.37C170.504 161.965 170.415 161.223 170.826 160.687C171.213 160.178 171.917 160.108 172.454 160.514C172.962 160.901 173.093 161.61 172.696 162.133L172.687 162.147ZM172.962 162.898L178.293 166.955C179.889 168.168 181.157 168.182 181.973 167.109C182.808 166.009 182.501 164.819 180.868 163.578L175.537 159.521L177.127 157.431L182.319 161.382C185.173 163.555 185.439 166.032 183.597 168.453C181.82 170.789 179.483 171.177 176.53 168.933L171.367 165.001L172.967 162.902L172.962 162.898ZM174.86 159.287C174.455 159.824 173.722 159.898 173.214 159.511C172.678 159.105 172.57 158.392 172.985 157.841C173.382 157.319 174.1 157.235 174.632 157.641C175.14 158.028 175.262 158.751 174.865 159.273L174.856 159.287H174.86Z" fill="white"/>
<path d="M92.6849 135.122H67.0826V104.449H92.0879V111.604H77.1341V115.993H89.7837V123.148H77.1341V127.962H92.6802V135.117L92.6849 135.122Z" fill="#222E5C"/>
<path d="M122.247 113.353H112.704C112.559 112.388 112.079 111.693 111.253 111.264C110.544 110.895 109.677 110.709 108.655 110.709C106.524 110.709 105.46 111.292 105.46 112.453C105.46 113.615 106.981 114.585 110.017 115.35C114.42 116.488 117.261 117.393 118.539 118.078C121.575 119.725 123.096 122.155 123.096 125.364C123.096 128.802 121.762 131.456 119.094 133.331C116.566 135.061 113.114 135.929 108.744 135.929C104.798 135.929 101.547 134.907 98.991 132.859C96.5469 130.928 95.2689 128.531 95.1569 125.662H104.784C104.985 126.712 105.535 127.524 106.445 128.093C107.27 128.606 108.217 128.858 109.299 128.858C112.084 128.858 113.474 128.107 113.474 126.6C113.474 125.434 111.953 124.482 108.917 123.745C104.569 122.668 101.734 121.758 100.395 121.021C97.3538 119.347 95.8379 116.819 95.8379 113.437C95.8379 110.284 97.1019 107.845 99.63 106.11C101.985 104.463 105.152 103.638 109.131 103.638C113.11 103.638 116.328 104.589 118.632 106.492C120.647 108.167 121.855 110.452 122.252 113.349L122.247 113.353Z" fill="#222E5C"/>
<path d="M126.846 135.122V104.449H136.898V114.375L145.713 104.449H157.514L146.31 115.993L158.708 135.122H146.651L139.281 122.897L136.898 125.411V135.122H126.846Z" fill="#222E5C"/>
<path d="M171.577 135.122H161.525V104.449H171.577V135.122ZM170.215 101.427H162.845V95.8903H170.215V101.427Z" fill="#222E5C"/>
<path d="M169.772 149.492C167.234 149.539 165.243 150.934 163.382 152.067C161.544 153.252 159.832 154.175 158.783 154.129C157.57 154.147 156.432 153.448 154.785 152.398C153.181 151.386 151.063 150.15 148.148 150.155C145.237 150.155 142.994 151.353 141.217 152.361C139.426 153.41 138.05 154.161 137 154.129C136.002 154.175 134.267 153.28 132.462 152.137C130.62 151.05 128.749 149.707 126.366 149.646C125.153 149.656 124.057 150.052 122.975 150.537C121.366 151.279 119.77 152.305 118.366 153.107C117.667 153.513 117.023 153.858 116.496 154.082C115.974 154.311 115.568 154.395 115.475 154.385C115.307 154.404 114.649 154.236 113.851 153.858C112.639 153.303 111.081 152.384 109.425 151.577C107.76 150.78 105.987 150.047 104.07 150.029C101.575 150.047 99.5134 151.199 97.7083 152.151C95.9079 153.144 94.3174 153.909 93.3099 153.872C92.3444 153.914 90.7072 153.098 88.8648 152.025C87.0177 150.999 84.9235 149.763 82.3814 149.646C82.2648 149.642 82.1762 149.642 82.1249 149.642C79.5222 149.665 77.4559 151.008 75.7535 152.17C74.9046 152.762 74.135 153.336 73.4959 153.751C72.8616 154.171 72.3345 154.39 72.162 154.404C72.05 154.422 71.9194 154.432 71.7795 154.432C71.0006 154.441 69.8251 154.096 68.9203 153.709C68.4632 153.518 68.0667 153.322 67.7915 153.177C67.6516 153.102 67.549 153.047 67.4743 153.005C67.4044 152.963 67.3811 152.953 67.3811 152.953L67.2271 153.214C68.1833 154.73 69.2048 156.204 70.2869 157.632C70.7673 157.72 71.2664 157.781 71.7795 157.785C72.078 157.785 72.3812 157.767 72.6797 157.715C73.7152 157.538 74.5128 157.072 75.3104 156.568C76.4951 155.798 77.6658 154.861 78.8412 154.152C80.0166 153.434 81.1407 152.986 82.1202 152.995C82.1762 152.995 82.1902 152.995 82.1902 152.995H82.2322C83.6454 153.019 85.3806 153.891 87.209 154.94C89.0514 155.948 90.9357 157.179 93.3052 157.221C95.628 157.184 97.4984 156.027 99.2848 155.099C101.062 154.129 102.722 153.354 104.066 153.378C105.362 153.34 107.461 154.269 109.462 155.36C110.474 155.896 111.473 156.451 112.447 156.899C113.432 157.338 114.36 157.715 115.47 157.734C116.622 157.715 117.56 157.296 118.548 156.815C120.013 156.078 121.552 155.075 122.993 154.283C124.411 153.471 125.769 152.958 126.356 152.991C127.173 152.93 128.889 153.83 130.699 154.982C132.546 156.083 134.528 157.426 136.991 157.473C139.398 157.44 141.166 156.204 142.863 155.267C144.58 154.292 146.18 153.499 148.139 153.499C150.093 153.508 151.432 154.255 152.999 155.229C154.524 156.167 156.268 157.454 158.773 157.473C161.301 157.426 163.288 156.032 165.149 154.903C166.987 153.718 168.699 152.795 169.762 152.841C169.851 152.841 169.926 152.841 169.991 152.851C171.647 153.023 172.3 153.424 172.496 153.588C172.5 153.592 172.505 153.597 172.51 153.602C173.116 152.659 173.69 151.699 174.245 150.724C173.382 150.15 172.146 149.707 170.35 149.525C170.149 149.502 169.949 149.492 169.762 149.492H169.772ZM147.518 165.864C144.911 165.855 142.929 166.792 141.375 167.646C139.804 168.518 138.619 169.232 137.406 169.395C137.257 169.414 137.103 169.428 136.954 169.428C135.862 169.451 134.421 168.807 132.676 167.879C130.932 166.974 128.894 165.855 126.389 165.435C125.904 165.351 125.438 165.314 124.99 165.314C122.555 165.314 120.811 166.442 119.458 167.282C118.063 168.159 117.065 168.742 115.736 168.742C114.066 168.742 112.545 168.191 110.88 167.483C109.224 166.788 107.443 165.92 105.278 165.677C105.003 165.645 104.723 165.635 104.458 165.635C102.275 165.649 100.19 166.419 98.212 167.114C96.253 167.823 94.3966 168.457 93.1233 168.49C93.0487 168.49 92.9694 168.49 92.8947 168.49C91.5468 168.49 90.376 168.066 89.1726 167.469C87.9692 166.881 86.7985 166.107 85.3852 165.626C84.9188 165.472 84.443 165.402 83.9999 165.402C82.4141 165.421 81.2387 166.163 80.4178 166.788C80.0913 167.044 79.8207 167.291 79.6062 167.501C80.4644 168.233 81.346 168.942 82.2415 169.623C82.3441 169.535 82.4514 169.446 82.5727 169.358C83.0624 168.984 83.6408 168.737 83.9999 168.756C84.1119 168.756 84.2098 168.77 84.3171 168.807C85.152 169.073 86.2854 169.777 87.6847 170.477C89.084 171.172 90.8098 171.848 92.8947 171.848C93.0113 171.848 93.1233 171.848 93.2306 171.844C95.3482 171.75 97.3771 170.962 99.3361 170.276C101.276 169.572 103.138 168.975 104.453 168.994C104.621 168.994 104.77 168.998 104.91 169.017C106.342 169.162 107.83 169.829 109.57 170.575C111.3 171.307 113.306 172.1 115.736 172.1C118.157 172.1 119.887 170.971 121.235 170.132C122.625 169.26 123.632 168.672 124.99 168.672C125.251 168.672 125.531 168.691 125.834 168.747C127.648 169.045 129.365 169.931 131.133 170.859C132.896 171.76 134.719 172.767 136.958 172.79C137.266 172.79 137.574 172.767 137.873 172.725C140.018 172.408 141.557 171.363 142.985 170.603C144.431 169.819 145.713 169.236 147.523 169.232C147.793 169.232 148.073 169.246 148.367 169.274C150.634 169.497 152.416 170.29 153.628 171.027C154.081 171.303 154.459 171.568 154.743 171.788C155.699 171.144 156.637 170.472 157.556 169.777C156.674 168.961 153.615 166.442 148.708 165.934C148.302 165.892 147.905 165.873 147.528 165.873L147.518 165.864ZM166.175 159.6C164.916 160.267 163.493 161.284 160.975 161.857C160.686 161.923 160.406 161.951 160.117 161.951C158.89 161.969 157.374 161.34 155.49 160.505C153.615 159.693 151.366 158.746 148.61 158.616C148.39 158.606 148.176 158.602 147.971 158.602C145.135 158.583 143.148 159.6 141.683 160.449C140.172 161.312 139.216 161.899 137.719 161.946C137.663 161.946 137.602 161.946 137.555 161.946C136.077 161.955 134.701 161.288 133.087 160.402C131.492 159.549 129.687 158.452 127.322 158.354C127.224 158.354 127.145 158.354 127.084 158.354C124.668 158.382 122.131 159.446 119.738 160.402C118.553 160.887 117.434 161.363 116.501 161.699C115.582 162.044 114.798 162.217 114.579 162.203C114.332 162.212 113.772 162.081 113.072 161.773C112.014 161.326 110.666 160.561 109.168 159.87C107.667 159.185 105.987 158.55 104.131 158.485C104.042 158.485 103.949 158.485 103.874 158.485C101.398 158.499 99.3595 159.572 97.587 160.463C95.8146 161.386 94.28 162.105 93.1886 162.077C92.1065 162.105 90.6792 161.372 89.028 160.374C87.3815 159.418 85.5205 158.219 83.1277 158.107C83.0438 158.107 82.9551 158.107 82.8852 158.107C80.553 158.131 78.3002 159.157 76.4904 160.099C75.2311 160.771 74.2189 161.433 73.7198 161.773C74.4801 162.618 75.2637 163.439 76.0706 164.236C76.6817 163.84 77.6238 163.266 78.678 162.744C80.1192 162.016 81.8077 161.438 82.8898 161.456C82.9411 161.456 82.9738 161.456 82.9831 161.456C84.2052 161.475 85.6744 162.259 87.3256 163.261C88.9767 164.213 90.8145 165.402 93.1933 165.43C95.4974 165.402 97.3631 164.32 99.1169 163.453C100.866 162.548 102.471 161.825 103.884 161.839C103.944 161.839 103.982 161.839 104.005 161.839C105.526 161.871 107.34 162.66 109.112 163.565C110.003 164.012 110.885 164.479 111.771 164.857C112.662 165.23 113.558 165.542 114.593 165.556C115.633 165.542 116.58 165.234 117.653 164.857C119.243 164.278 121.039 163.471 122.756 162.818C124.458 162.161 126.114 161.694 127.093 161.708C127.145 161.708 127.173 161.708 127.182 161.708H127.215C128.502 161.741 129.85 162.44 131.492 163.35C133.12 164.227 135.065 165.295 137.565 165.304C137.658 165.304 137.737 165.304 137.812 165.304C140.289 165.23 141.977 164.143 143.348 163.364C144.766 162.571 145.9 161.974 147.98 161.955C148.139 161.955 148.297 161.955 148.451 161.965C150.522 162.063 152.327 162.781 154.165 163.583C155.998 164.362 157.864 165.286 160.126 165.304C160.648 165.304 161.18 165.248 161.716 165.132C162.388 164.978 162.999 164.796 163.568 164.595C165.313 162.893 166.954 161.088 168.489 159.194C168.26 159.124 168.032 159.101 167.85 159.105C167.057 159.129 166.628 159.39 166.185 159.6H166.175ZM181.283 129.403C181.111 129.366 180.444 129.179 179.693 128.937C176.955 128.083 172.276 126.441 169.147 126.204C168.974 126.19 168.792 126.185 168.624 126.185C166.404 126.199 164.748 127.127 163.242 127.827C161.712 128.55 160.308 129.142 158.297 129.147C158.214 129.147 158.13 129.147 158.05 129.147C155.732 129.072 154.683 128.601 153.461 128.018C152.267 127.435 150.779 126.6 148.512 126.46C148.335 126.446 148.157 126.441 147.985 126.441C145.625 126.46 143.39 127.374 141.389 128.218C139.426 129.081 137.593 129.884 136.842 129.921C136.804 129.921 136.762 129.921 136.725 129.921C136.053 129.968 134.323 129.249 132.663 128.302C130.946 127.374 129.309 126.315 127.69 125.863C127.327 125.765 126.972 125.737 126.636 125.737C125.61 125.746 124.612 126.008 123.534 126.348C121.935 126.871 120.2 127.617 118.609 128.284C117.032 128.951 115.554 129.529 114.756 129.688C114.616 129.716 114.472 129.73 114.323 129.73C113.52 129.758 112.298 129.212 110.81 128.428C109.322 127.673 107.545 126.74 105.344 126.581C105.115 126.567 104.887 126.558 104.672 126.558C102.55 126.558 100.885 127.248 99.3828 127.878C97.8622 128.522 96.4443 129.137 94.4993 129.408C94.1588 129.455 93.8323 129.478 93.5198 129.478C91.9432 129.478 90.5299 128.941 88.9441 128.223C87.3722 127.524 85.6651 126.628 83.5475 126.334C83.0158 126.264 82.5027 126.227 82.0036 126.232C80.1659 126.232 78.5754 126.698 77.1528 127.281C75.7255 127.869 74.4381 128.564 73.0622 129.142C72.036 129.576 71.369 129.716 70.8466 129.716C70.3382 129.716 69.8718 129.599 69.1395 129.259C68.4165 128.923 67.4883 128.354 66.2663 127.593C64.3399 126.395 62.3203 126.068 60.6971 126.068C59.5917 126.068 58.6542 126.218 57.9778 126.362C58.0898 127.486 58.239 128.601 58.4116 129.706C58.8827 129.585 59.7176 129.417 60.6971 129.422C61.8865 129.422 63.2438 129.66 64.4985 130.439C65.7252 131.199 66.7187 131.819 67.7122 132.286C68.6964 132.752 69.7319 133.065 70.8466 133.06C71.9987 133.06 73.1228 132.748 74.3635 132.22C75.9214 131.558 77.2181 130.863 78.4214 130.369C79.6342 129.874 80.7209 129.571 81.999 129.571C82.3488 129.571 82.7126 129.594 83.0951 129.646C84.4804 129.823 85.8983 130.504 87.5635 131.269C89.2193 132.015 91.1503 132.822 93.5151 132.822C93.9815 132.822 94.4619 132.789 94.9517 132.724C97.3911 132.388 99.2009 131.586 100.684 130.961C102.181 130.327 103.296 129.902 104.672 129.902C104.821 129.902 104.966 129.902 105.111 129.916C106.44 129.996 107.806 130.639 109.28 131.4C110.754 132.132 112.317 133.046 114.318 133.074C114.686 133.074 115.059 133.037 115.433 132.962C117.196 132.58 119.351 131.581 121.524 130.686C122.597 130.238 123.656 129.823 124.57 129.524C125.475 129.226 126.263 129.067 126.641 129.077C126.767 129.077 126.837 129.091 126.837 129.091C127.578 129.259 129.314 130.257 131.058 131.227C132.863 132.183 134.687 133.209 136.734 133.256H136.758C136.898 133.256 137.028 133.247 137.145 133.237C139.006 133.023 140.778 132.09 142.719 131.278C144.622 130.448 146.581 129.753 147.994 129.772C148.101 129.772 148.199 129.772 148.283 129.781C149.874 129.898 150.629 130.345 151.996 131.008C153.335 131.675 155.168 132.421 157.971 132.472C158.083 132.472 158.195 132.472 158.297 132.472C161.026 132.477 163.078 131.586 164.674 130.826C166.292 130.047 167.435 129.492 168.62 129.506C168.717 129.506 168.806 129.506 168.895 129.515C170.448 129.608 173.256 130.378 175.672 131.143C176.889 131.521 178.027 131.899 178.942 132.183C179.399 132.328 179.795 132.444 180.136 132.538C180.462 132.612 180.644 132.687 181.031 132.715C181.26 131.609 181.46 130.495 181.633 129.371H181.283V129.403ZM169.221 134.786C169.142 134.786 169.063 134.786 168.997 134.786C166.698 134.823 164.646 135.943 162.71 136.936C160.826 137.958 158.988 138.876 158.241 138.895C158.227 138.895 158.2 138.895 158.181 138.895C157.962 138.909 157.407 138.75 156.707 138.354C155.648 137.776 154.319 136.768 152.864 135.84C151.399 134.926 149.785 134.03 147.873 133.89C147.733 133.881 147.588 133.876 147.467 133.876C144.883 133.914 142.915 135.332 141.156 136.465C139.412 137.659 137.849 138.545 136.87 138.499C135.648 138.522 134.001 137.799 132.224 136.838C130.433 135.905 128.549 134.762 126.352 134.417C126.091 134.375 125.825 134.361 125.577 134.361C123.157 134.408 121.034 135.686 119.038 136.773C118.054 137.328 117.121 137.86 116.342 138.228C115.563 138.606 114.92 138.769 114.71 138.755C114.318 138.755 113.926 138.657 113.394 138.415C111.813 137.738 109.402 135.593 105.185 135.052C104.789 135 104.397 134.977 104.024 134.977C101.318 134.977 99.2242 136.185 97.6197 137.188C96.0245 138.247 94.7558 138.96 94.3267 138.886C94.3127 138.886 94.2987 138.886 94.2707 138.886C93.5617 138.904 92.0738 138.135 90.1848 137.132C88.2864 136.157 85.8843 135.061 82.8852 134.916C82.6799 134.902 82.47 134.898 82.2648 134.898C79.4476 134.898 77.1014 135.821 75.1518 136.638C73.1974 137.477 71.5976 138.139 70.4408 138.116C70.3942 138.116 70.3476 138.116 70.3009 138.116C68.743 138.046 67.9967 137.743 67.2551 137.319C66.5182 136.899 65.7532 136.204 64.5405 135.509C63.1552 134.744 61.7046 134.613 60.5525 134.604C60.1188 134.604 59.7316 134.627 59.3958 134.66C59.6617 135.775 59.9602 136.875 60.2867 137.962C60.3706 137.962 60.4592 137.962 60.5479 137.962C61.3828 137.953 62.3343 138.107 62.894 138.438C63.7289 138.895 64.4379 139.548 65.562 140.215C66.6768 140.882 68.174 141.409 70.1936 141.47C70.2822 141.47 70.3615 141.47 70.4408 141.47C72.6844 141.446 74.5594 140.5 76.4484 139.73C78.3375 138.937 80.2032 138.247 82.2648 138.251C82.4187 138.251 82.5633 138.251 82.7079 138.265C84.9748 138.377 86.8638 139.198 88.6502 140.117C90.446 141.003 92.0365 142.095 94.1261 142.239C94.1914 142.239 94.2521 142.239 94.3174 142.239C96.4862 142.16 97.8855 140.924 99.3968 140.028C100.899 139.077 102.354 138.326 104.014 138.331C104.252 138.331 104.495 138.345 104.742 138.377C106.934 138.667 108.385 139.436 109.803 140.262C110.512 140.672 111.211 141.106 111.995 141.465C112.779 141.824 113.683 142.109 114.696 142.104C115.824 142.09 116.776 141.708 117.755 141.26C119.206 140.574 120.694 139.641 122.103 138.909C123.497 138.167 124.817 137.687 125.573 137.71C125.685 137.71 125.773 137.715 125.848 137.729C127.117 137.897 128.824 138.806 130.652 139.795C132.495 140.756 134.5 141.824 136.87 141.848C139.384 141.796 141.259 140.374 143.003 139.259C144.738 138.079 146.32 137.188 147.462 137.225C147.532 137.225 147.588 137.225 147.626 137.23C148.848 137.272 150.62 138.312 152.378 139.539C153.265 140.145 154.156 140.77 155.088 141.283C156.021 141.787 157.001 142.225 158.181 142.239C158.302 142.239 158.419 142.235 158.526 142.225C160.574 141.992 162.379 140.859 164.272 139.893C166.115 138.895 167.976 138.093 168.997 138.13C169.039 138.13 169.063 138.13 169.072 138.13C170.257 138.149 172.78 139.007 174.874 139.945C176.348 140.588 177.71 141.274 178.466 141.67C178.858 140.612 179.221 139.543 179.557 138.461C178.718 138.032 177.547 137.458 176.222 136.875C173.927 135.891 171.39 134.893 169.226 134.781L169.221 134.786ZM169.93 142.477C169.79 142.463 169.646 142.459 169.52 142.459C167.22 142.51 165.173 143.695 163.176 144.707C162.197 145.225 161.255 145.719 160.448 146.064C159.645 146.414 158.964 146.582 158.652 146.572C158.321 146.582 157.691 146.419 156.935 146.064C155.797 145.546 154.407 144.665 152.948 143.881C151.478 143.112 149.93 142.365 148.148 142.347C145.872 142.384 143.792 143.457 141.823 144.413C139.906 145.397 138.04 146.293 137.234 146.325C137.196 146.325 137.154 146.325 137.126 146.325C136.492 146.386 134.869 145.607 133.068 144.558C131.235 143.545 129.127 142.342 126.65 142.09C126.408 142.067 126.16 142.057 125.927 142.057C123.437 142.076 121.235 143.144 119.318 144.152C117.429 145.178 115.708 146.185 114.85 146.353C114.775 146.367 114.696 146.377 114.598 146.377C113.973 146.433 112.522 145.738 110.824 144.777C109.108 143.858 107.051 142.752 104.56 142.599C104.392 142.589 104.22 142.585 104.056 142.585C101.463 142.594 99.4248 143.737 97.8156 144.683C96.2111 145.682 94.919 146.372 94.3407 146.311C94.0282 146.321 93.2959 146.153 92.419 145.817C91.0897 145.322 89.4059 144.506 87.6241 143.797C85.8377 143.098 83.944 142.473 81.985 142.463C81.887 142.463 81.7984 142.463 81.7238 142.468C79.205 142.557 76.9522 143.578 75.0585 144.474C74.1163 144.926 73.2627 145.355 72.5584 145.644C71.8634 145.943 71.3131 146.069 71.1451 146.059C71.1312 146.059 71.1125 146.059 71.0985 146.059C70.3242 146.031 67.8522 145.439 65.8045 144.856C64.3586 144.45 63.0526 144.054 62.3856 143.849C62.9546 145.225 63.5703 146.572 64.2373 147.897C64.4565 147.958 64.6758 148.023 64.9043 148.084C67.0825 148.685 69.4147 149.31 70.9353 149.408C71.0192 149.408 71.0845 149.413 71.1498 149.413C72.148 149.404 72.9875 149.096 73.8551 148.741C76.3971 147.641 79.373 145.859 81.8357 145.822C81.901 145.822 81.9523 145.822 81.9896 145.822C83.5848 145.803 85.8563 146.647 88.0345 147.608C89.1307 148.084 90.2081 148.573 91.2436 148.961C92.2884 149.343 93.2679 149.66 94.3453 149.67C96.5002 149.609 97.9975 148.438 99.532 147.571C101.062 146.656 102.517 145.933 104.061 145.938C104.168 145.938 104.262 145.938 104.35 145.947C105.917 146.031 107.569 146.82 109.229 147.729C110.908 148.601 112.508 149.679 114.602 149.735C114.929 149.735 115.26 149.702 115.591 149.628C117.429 149.18 119.094 148.06 120.904 147.114C122.686 146.148 124.495 145.397 125.932 145.411C126.072 145.411 126.207 145.416 126.338 145.43C127.844 145.556 129.649 146.465 131.44 147.482C133.264 148.457 134.971 149.614 137.136 149.674C137.285 149.674 137.411 149.665 137.523 149.656C139.561 149.432 141.408 148.336 143.334 147.403C145.214 146.437 147.103 145.654 148.157 145.691C149.113 145.644 150.909 146.507 152.719 147.58C153.638 148.107 154.58 148.657 155.546 149.101C156.516 149.539 157.519 149.903 158.661 149.912C159.776 149.903 160.774 149.558 161.772 149.133C163.265 148.494 164.776 147.617 166.175 146.927C167.561 146.227 168.857 145.775 169.529 145.798C169.59 145.798 169.632 145.798 169.66 145.798C170.91 145.887 172.705 146.521 174.1 147.16C174.744 147.454 175.303 147.734 175.733 147.958C176.236 146.96 176.707 145.947 177.155 144.921C176.703 144.683 176.134 144.399 175.481 144.105C173.9 143.401 171.913 142.626 169.944 142.459L169.93 142.477Z" fill="white"/>
<path d="M153.465 128.013C152.271 127.43 150.783 126.595 148.516 126.455C148.339 126.441 148.162 126.437 147.989 126.437C145.97 126.451 144.039 127.127 142.271 127.85L144.02 130.756C145.485 130.187 146.898 129.776 147.989 129.79C148.097 129.79 148.195 129.79 148.279 129.8C149.869 129.916 150.625 130.364 151.991 131.026C153.162 131.609 154.715 132.253 156.968 132.44L154.365 128.424C154.058 128.298 153.764 128.158 153.461 128.013H153.465ZM88.3704 127.967H77.1388V127.29C75.7162 127.878 74.4335 128.568 73.0622 129.147C72.0361 129.58 71.3691 129.72 70.8467 129.72C70.3383 129.72 69.8718 129.604 69.1395 129.263C68.5891 129.007 67.9175 128.615 67.0826 128.102V131.973C67.2925 132.085 67.5024 132.192 67.7123 132.29C68.6964 132.757 69.7319 133.069 70.8467 133.065C71.9987 133.065 73.1228 132.752 74.3635 132.225C75.9214 131.563 77.2181 130.868 78.4215 130.373C79.6342 129.879 80.721 129.576 81.999 129.576C82.3488 129.576 82.7126 129.599 83.0951 129.65C84.4804 129.828 85.8983 130.509 87.5635 131.274C89.0187 131.931 90.6932 132.631 92.6896 132.79V129.417C91.4349 129.268 90.2455 128.806 88.9441 128.214C88.7575 128.13 88.5663 128.041 88.3704 127.953V127.967ZM114.756 129.692C114.616 129.72 114.472 129.734 114.323 129.734C113.614 129.758 112.569 129.329 111.3 128.685C110.74 128.802 110.078 128.862 109.299 128.862C108.222 128.862 107.27 128.606 106.445 128.097C105.82 127.705 105.367 127.197 105.078 126.577C104.943 126.572 104.803 126.563 104.672 126.563C102.55 126.563 100.885 127.253 99.3828 127.883C98.268 128.354 97.2092 128.806 95.9639 129.123C96.4396 130.168 97.13 131.129 98.0255 132.011C99.033 131.679 99.9099 131.302 100.689 130.97C102.186 130.336 103.301 129.912 104.677 129.912C104.826 129.912 104.971 129.912 105.115 129.926C106.445 130.005 107.811 130.649 109.285 131.409C110.759 132.141 112.322 133.055 114.323 133.083C114.691 133.083 115.064 133.046 115.437 132.971C117.2 132.589 119.355 131.591 121.529 130.695C121.59 130.667 121.655 130.644 121.715 130.621C122.462 129.427 122.905 128.06 123.054 126.521C121.594 127.029 120.05 127.687 118.618 128.284C117.042 128.951 115.563 129.529 114.766 129.688L114.756 129.692ZM147.472 133.876C146.963 133.886 146.474 133.946 146.007 134.049L146.655 135.126H151.656C150.517 134.501 149.277 133.993 147.877 133.89C147.738 133.881 147.593 133.876 147.472 133.876ZM169.151 126.204C168.979 126.19 168.797 126.185 168.629 126.185C166.409 126.199 164.753 127.127 163.246 127.827C162.668 128.102 162.108 128.354 161.525 128.564V132.067C162.743 131.74 163.787 131.278 164.683 130.854C166.301 130.075 167.444 129.52 168.629 129.534C168.727 129.534 168.815 129.534 168.904 129.543C169.594 129.585 170.537 129.762 171.581 130.01V126.572C170.719 126.39 169.893 126.255 169.156 126.199L169.151 126.204ZM136.73 129.926C136.058 129.972 134.328 129.254 132.667 128.307C130.951 127.379 129.314 126.32 127.695 125.868C127.406 125.788 127.121 125.765 126.851 125.751V129.109C127.597 129.287 129.323 130.275 131.058 131.241C132.863 132.197 134.687 133.223 136.734 133.27H136.758C136.809 133.27 136.856 133.27 136.907 133.265V129.907C136.907 129.907 136.865 129.916 136.851 129.916C136.814 129.916 136.772 129.916 136.734 129.916L136.73 129.926ZM126.851 135.126H128.805C128.18 134.87 127.532 134.66 126.851 134.515V135.126ZM169.007 134.781C168.26 134.795 167.542 134.93 166.842 135.126H171.348C170.621 134.944 169.907 134.818 169.231 134.786C169.151 134.786 169.072 134.786 169.007 134.786V134.781ZM104.028 134.977C103.674 134.977 103.329 135 102.993 135.038C104.681 135.616 106.556 135.919 108.637 135.929C107.643 135.541 106.51 135.22 105.195 135.052C104.798 135 104.406 134.977 104.033 134.977H104.028ZM82.2742 134.898C81.4299 134.898 80.6323 134.991 79.8674 135.126H84.681C84.1072 135.024 83.5149 134.944 82.8899 134.912C82.6846 134.898 82.4747 134.893 82.2695 134.893L82.2742 134.898Z" fill="#36A9E1"/>
<path d="M121.902 64.3037C121.902 64.3037 121.137 69.4857 119.253 71.7199C117.368 73.9588 115.955 74.901 115.722 77.6669C115.489 80.4328 118.077 84.085 122.55 84.085C127.023 84.085 128.497 80.1996 128.497 77.3731C128.497 74.5465 125.377 73.0772 124.258 70.6611C123.138 68.2497 122.033 65.1946 121.902 64.3037ZM124.952 77.8535C125.34 77.0745 125.769 76.1837 125.885 76.1417C126.002 76.1044 126.897 76.1417 126.664 77.1538C126.622 77.3451 125.811 79.0196 124.994 79.2155C124.178 79.4114 123.516 78.8656 123.516 78.8656C123.516 78.8656 124.565 78.6324 124.952 77.8535ZM105.442 72.8207C105.442 72.8207 104.929 76.2909 103.665 77.7882C102.401 79.2854 101.458 79.9198 101.3 81.7715C101.141 83.6279 102.876 86.072 105.876 86.072C108.875 86.072 109.859 83.4693 109.859 81.5756C109.859 79.6819 107.769 78.6977 107.018 77.0792C106.267 75.4607 105.526 73.4177 105.442 72.8207ZM107.485 81.8974C107.746 81.375 108.03 80.778 108.11 80.75C108.189 80.722 108.786 80.75 108.632 81.4263C108.604 81.5523 108.058 82.6764 107.513 82.807C106.967 82.9376 106.524 82.5737 106.524 82.5737C106.524 82.5737 107.228 82.4198 107.489 81.8974H107.485ZM89.7884 78.1193C89.7884 78.1193 89.2753 81.5896 88.0113 83.0868C86.7473 84.584 85.8051 85.2184 85.6465 87.0701C85.4879 88.9265 87.223 91.3706 90.2222 91.3706C93.2213 91.3706 94.2055 88.7679 94.2055 86.8742C94.2055 84.9805 92.1159 83.9964 91.3649 82.3778C90.614 80.7593 89.8723 78.7164 89.7884 78.1193ZM91.8313 87.1961C92.0925 86.6737 92.3771 86.0766 92.4564 86.0486C92.5356 86.0207 93.1327 86.0486 92.9788 86.725C92.9508 86.8509 92.405 87.975 91.8593 88.1056C91.3136 88.2362 90.8705 87.8724 90.8705 87.8724C90.8705 87.8724 91.5748 87.7185 91.836 87.1961H91.8313ZM138.25 72.816C138.25 72.816 137.737 76.2863 136.473 77.7835C135.209 79.2808 134.267 79.9151 134.108 81.7668C133.95 83.6232 135.685 86.0673 138.684 86.0673C141.683 86.0673 142.667 83.4646 142.667 81.5709C142.667 79.6772 140.578 78.693 139.827 77.0745C139.076 75.456 138.334 73.4131 138.25 72.816ZM140.293 81.8928C140.555 81.3704 140.839 80.7733 140.918 80.7453C140.998 80.7174 141.595 80.7453 141.441 81.4217C141.413 81.5476 140.867 82.6717 140.321 82.8023C139.776 82.9329 139.333 82.5691 139.333 82.5691C139.333 82.5691 140.037 82.4152 140.298 81.8928H140.293ZM155.424 82.3778C154.673 80.7593 153.932 78.7164 153.848 78.1193C153.848 78.1193 153.335 81.5896 152.071 83.0868C150.807 84.584 149.86 85.2184 149.706 87.0701C149.547 88.9265 151.282 91.3706 154.282 91.3706C157.281 91.3706 158.265 88.7679 158.265 86.8742C158.265 84.9805 156.175 83.9964 155.424 82.3778ZM155.914 88.1056C155.368 88.2362 154.925 87.8724 154.925 87.8724C154.925 87.8724 155.63 87.7185 155.891 87.1961C156.152 86.6737 156.436 86.0766 156.516 86.0486C156.595 86.0207 157.192 86.0486 157.038 86.725C157.01 86.8509 156.464 87.975 155.919 88.1056H155.914Z" fill="white"/>
</svg>
