<svg width="32" height="32" viewBox="0 0 32 32" fill="none" xmlns="http://www.w3.org/2000/svg">
<path d="M24 10.6666C24 16.6666 16 22.6666 16 22.6666C16 22.6666 8 16.6666 8 10.6666C8 8.54489 8.84286 6.51006 10.3431 5.00977C11.8434 3.50948 13.8783 2.66663 16 2.66663C18.1217 2.66663 20.1566 3.50948 21.6569 5.00977C23.1571 6.51006 24 8.54489 24 10.6666Z" stroke="#B2C4E0" stroke-width="2" stroke-linecap="round" stroke-linejoin="round"/>
<path d="M16 13.3333C17.4727 13.3333 18.6666 12.1394 18.6666 10.6667C18.6666 9.19391 17.4727 8 16 8C14.5272 8 13.3333 9.19391 13.3333 10.6667C13.3333 12.1394 14.5272 13.3333 16 13.3333Z" stroke="#B2C4E0" stroke-width="2" stroke-linecap="round" stroke-linejoin="round"/>
<path d="M11.78 18.6666H6.66669C6.3954 18.6814 6.1351 18.7787 5.92064 18.9455C5.70618 19.1123 5.54779 19.3407 5.46669 19.6L2.80002 27.6C2.66669 27.7333 2.66669 27.8666 2.66669 28C2.66669 28.8 3.20002 29.3333 4.00002 29.3333H28C28.8 29.3333 29.3334 28.8 29.3334 28C29.3334 27.8666 29.3334 27.7333 29.2 27.6L26.5334 19.6C26.4522 19.3407 26.2939 19.1123 26.0794 18.9455C25.8649 18.7787 25.6046 18.6814 25.3334 18.6666H20.22" stroke="#B2C4E0" stroke-width="2" stroke-linecap="round" stroke-linejoin="round"/>
</svg>
