<svg width="32" height="32" viewBox="0 0 32 32" fill="none" xmlns="http://www.w3.org/2000/svg">
<path d="M16 25.3333H22C23.2377 25.3333 24.4246 24.8417 25.2998 23.9665C26.175 23.0913 26.6666 21.9043 26.6666 20.6667C26.6666 19.429 26.175 18.242 25.2998 17.3668C24.4246 16.4917 23.2377 16 22 16H11.3333C10.0956 16 8.90865 15.5083 8.03348 14.6332C7.15831 13.758 6.66665 12.571 6.66665 11.3333C6.66665 10.0957 7.15831 8.90867 8.03348 8.0335C8.90865 7.15833 10.0956 6.66667 11.3333 6.66667H16M5.33331 25.3333C5.33331 26.0406 5.61426 26.7189 6.11436 27.219C6.61446 27.719 7.29274 28 7.99998 28C8.70722 28 9.3855 27.719 9.8856 27.219C10.3857 26.7189 10.6666 26.0406 10.6666 25.3333C10.6666 24.6261 10.3857 23.9478 9.8856 23.4477C9.3855 22.9476 8.70722 22.6667 7.99998 22.6667C7.29274 22.6667 6.61446 22.9476 6.11436 23.4477C5.61426 23.9478 5.33331 24.6261 5.33331 25.3333ZM21.3333 6.66667C21.3333 7.37391 21.6143 8.05219 22.1144 8.55229C22.6145 9.05238 23.2927 9.33333 24 9.33333C24.7072 9.33333 25.3855 9.05238 25.8856 8.55229C26.3857 8.05219 26.6666 7.37391 26.6666 6.66667C26.6666 5.95942 26.3857 5.28115 25.8856 4.78105C25.3855 4.28095 24.7072 4 24 4C23.2927 4 22.6145 4.28095 22.1144 4.78105C21.6143 5.28115 21.3333 5.95942 21.3333 6.66667Z" stroke="#B2C4E0" stroke-width="2" stroke-linecap="round" stroke-linejoin="round"/>
</svg>
