<svg width="24" height="25" viewBox="0 0 24 25" fill="none" xmlns="http://www.w3.org/2000/svg">
<path d="M8 17.5C8 18.0304 7.78929 18.5391 7.41421 18.9142C7.03914 19.2893 6.53043 19.5 6 19.5C5.46957 19.5 4.96086 19.2893 4.58579 18.9142C4.21071 18.5391 4 18.0304 4 17.5C4 16.9696 4.21071 16.4609 4.58579 16.0858C4.96086 15.7107 5.46957 15.5 6 15.5C6.53043 15.5 7.03914 15.7107 7.41421 16.0858C7.78929 16.4609 8 16.9696 8 17.5ZM8 17.5H13C13.1965 16.2445 13.7866 15.0838 14.6852 14.1852C15.5838 13.2866 16.7445 12.6965 18 12.5V7.5C18 6.96957 17.7893 6.46086 17.4142 6.08579C17.0391 5.71071 16.5304 5.5 16 5.5H15M16 17.5C16 18.0304 16.2107 18.5391 16.5858 18.9142C16.9609 19.2893 17.4696 19.5 18 19.5C18.5304 19.5 19.0391 19.2893 19.4142 18.9142C19.7893 18.5391 20 18.0304 20 17.5C20 16.9696 19.7893 16.4609 19.4142 16.0858C19.0391 15.7107 18.5304 15.5 18 15.5C17.4696 15.5 16.9609 15.7107 16.5858 16.0858C16.2107 16.4609 16 16.9696 16 17.5Z" stroke="#2A5AA9" stroke-width="2" stroke-linecap="round" stroke-linejoin="round"/>
</svg>
