<svg width="24" height="25" viewBox="0 0 24 25" fill="none" xmlns="http://www.w3.org/2000/svg">
<path d="M2 20.5C2.22717 20.8165 2.52797 21.0729 2.87642 21.2472C3.22488 21.4214 3.6105 21.5082 4 21.5C4.3895 21.5082 4.77512 21.4214 5.12358 21.2472C5.47203 21.0729 5.77283 20.8165 6 20.5C6.22717 20.1835 6.52797 19.9271 6.87642 19.7528C7.22488 19.5786 7.6105 19.4918 8 19.5C8.3895 19.4918 8.77512 19.5786 9.12358 19.7528C9.47203 19.9271 9.77283 20.1835 10 20.5C10.2272 20.8165 10.528 21.0729 10.8764 21.2472C11.2249 21.4214 11.6105 21.5082 12 21.5C12.3895 21.5082 12.7751 21.4214 13.1236 21.2472C13.472 21.0729 13.7728 20.8165 14 20.5C14.2272 20.1835 14.528 19.9271 14.8764 19.7528C15.2249 19.5786 15.6105 19.4918 16 19.5C16.3895 19.4918 16.7751 19.5786 17.1236 19.7528C17.472 19.9271 17.7728 20.1835 18 20.5C18.2272 20.8165 18.528 21.0729 18.8764 21.2472C19.2249 21.4214 19.6105 21.5082 20 21.5C20.3895 21.5082 20.7751 21.4214 21.1236 21.2472C21.472 21.0729 21.7728 20.8165 22 20.5M4 18.5L3 13.5H21L19 17.5M5 13.5V7.5H13L17 13.5M7 7.5V3.5H6" stroke="#2A5AA9" stroke-width="2" stroke-linecap="round" stroke-linejoin="round"/>
</svg>
