<svg width="65" height="65" viewBox="0 0 65 65" fill="none" xmlns="http://www.w3.org/2000/svg">
<path d="M45.8002 9.463C49.8124 11.7796 53.15 15.1038 55.4826 19.1067C57.8152 23.1096 59.0619 27.6523 59.0993 32.2851C59.1367 36.9178 57.9635 41.4801 55.6959 45.5201C53.4283 49.5601 50.1448 52.9379 46.1706 55.319C42.1964 57.7001 37.6692 59.0019 33.0372 59.0957C28.4053 59.1894 23.8291 58.0718 19.7618 55.8535C15.6945 53.6351 12.2771 50.393 9.84783 46.448C7.4186 42.503 6.06179 37.992 5.91174 33.3615L5.89844 32.4996L5.91174 31.6377C6.09081 26.1026 7.99299 20.7613 11.353 16.3589C14.7129 11.9565 19.3631 8.71258 24.6549 7.07953C24.4374 8.23273 24.477 9.41971 24.7707 10.5559C25.0644 11.6921 25.6051 12.7495 26.3542 13.6528C27.1033 14.5562 28.0425 15.2831 29.1047 15.782C30.1669 16.2809 31.3261 16.5393 32.4996 16.5389C33.2051 16.5389 33.8817 16.2587 34.3806 15.7598C34.8795 15.2609 35.1597 14.5843 35.1597 13.8788C35.1597 13.1733 34.8795 12.4967 34.3806 11.9978C33.8817 11.4989 33.2051 11.2187 32.4996 11.2187L32.1884 11.2001C31.5151 11.12 30.8979 10.7858 30.4627 10.2659C30.0275 9.74598 29.8073 9.0795 29.847 8.40266C29.8868 7.72581 30.1835 7.08969 30.6765 6.62425C31.1695 6.15881 31.8216 5.89919 32.4996 5.89844C37.091 5.89844 41.685 7.08751 45.8002 9.463ZM41.012 38.5807C40.5082 38.0869 39.829 37.8134 39.1236 37.8204C38.4182 37.8274 37.7445 38.1142 37.2506 38.6179C36.6314 39.2501 35.8922 39.7524 35.0764 40.0952C34.2606 40.4381 33.3846 40.6147 32.4996 40.6147C31.6147 40.6147 30.7387 40.4381 29.9229 40.0952C29.107 39.7524 28.3679 39.2501 27.7487 38.6179C27.2523 38.1259 26.5822 37.8489 25.8833 37.847C25.1843 37.8451 24.5127 38.1183 24.0137 38.6076C23.5146 39.0969 23.2281 39.763 23.2162 40.4618C23.2043 41.1606 23.4679 41.836 23.95 42.3421C25.0645 43.4794 26.3948 44.3829 27.8628 44.9997C29.3309 45.6165 30.9073 45.9342 32.4996 45.9342C34.092 45.9342 35.6684 45.6165 37.1364 44.9997C38.6045 44.3829 39.9347 43.4794 41.0493 42.3421C41.543 41.8383 41.8165 41.159 41.8095 40.4537C41.8025 39.7483 41.5157 39.0746 41.012 38.5807ZM24.5459 24.5193L24.208 24.5379C23.5348 24.618 22.9175 24.9521 22.4823 25.472C22.0472 25.992 21.8269 26.6584 21.8667 27.3353C21.9064 28.0121 22.2031 28.6483 22.6961 29.1137C23.1891 29.5791 23.8413 29.8388 24.5193 29.8395L24.8571 29.8209C25.5304 29.7408 26.1476 29.4067 26.5828 28.8867C27.018 28.3668 27.2382 27.7003 27.1985 27.0235C27.1587 26.3466 26.8621 25.7105 26.369 25.2451C25.876 24.7796 25.2239 24.52 24.5459 24.5193ZM40.5066 24.5193L40.1688 24.5379C39.4955 24.618 38.8782 24.9521 38.443 25.472C38.0079 25.992 37.7877 26.6584 37.8274 27.3353C37.8671 28.0121 38.1638 28.6483 38.6568 29.1137C39.1498 29.5791 39.802 29.8388 40.48 29.8395L40.8178 29.8209C41.4911 29.7408 42.1084 29.4067 42.5435 28.8867C42.9787 28.3668 43.1989 27.7003 43.1592 27.0235C43.1194 26.3466 42.8228 25.7105 42.3298 25.2451C41.8367 24.7796 41.1846 24.52 40.5066 24.5193Z" fill="white"/>
</svg>
