<svg width="32" height="32" viewBox="0 0 32 32" fill="none" xmlns="http://www.w3.org/2000/svg">
<g filter="url(#filter0_d_1122_1044)">
<path d="M15.4286 23.4773C15.6013 23.5806 15.7968 23.6349 15.9957 23.6349C16.1947 23.6349 16.3901 23.5806 16.5629 23.4773C16.9129 23.2664 25.1343 18.244 25.1343 9.28018C25.0625 6.79409 24.0686 4.43493 22.3634 2.70262C20.6582 0.970314 18.3755 0.000972763 15.9992 7.31749e-07C13.6228 -0.0009713 11.3394 0.966502 9.63292 2.69742C7.9264 4.42833 6.93082 6.78667 6.85714 9.27271C6.85714 18.244 15.0829 23.259 15.4286 23.4773ZM16 5.68419C16.6781 5.68419 17.341 5.89465 17.9048 6.28896C18.4686 6.68327 18.9081 7.24372 19.1676 7.89944C19.4271 8.55515 19.495 9.27669 19.3627 9.97279C19.2304 10.6689 18.9039 11.3083 18.4244 11.8102C17.9449 12.312 17.334 12.6538 16.6689 12.7923C16.0038 12.9307 15.3144 12.8597 14.6879 12.5881C14.0615 12.3165 13.526 11.8565 13.1492 11.2664C12.7725 10.6763 12.5714 9.98245 12.5714 9.27271C12.5714 8.32097 12.9327 7.40822 13.5756 6.73524C14.2186 6.06226 15.0907 5.68419 16 5.68419ZM32 24.823C32 29.485 23.7557 32 16 32C8.24429 32 0 29.485 0 24.823C0 22.6414 1.88857 20.7096 5.31857 19.3849C5.59986 19.2876 5.90623 19.3084 6.17311 19.443C6.43999 19.5776 6.64652 19.8154 6.74915 20.1062C6.85178 20.3971 6.8425 20.7183 6.72327 21.0021C6.60403 21.2859 6.38416 21.5102 6.11 21.6277C3.75143 22.5413 2.28571 23.7643 2.28571 24.823C2.28571 26.8206 7.50286 29.6077 16 29.6077C24.4971 29.6077 29.7143 26.8206 29.7143 24.823C29.7143 23.7643 28.2486 22.5413 25.89 21.6292C25.6158 21.5117 25.396 21.2874 25.2767 21.0036C25.1575 20.7198 25.1482 20.3986 25.2508 20.1077C25.3535 19.8169 25.56 19.5791 25.8269 19.4445C26.0938 19.3099 26.4001 19.2891 26.6814 19.3864C30.1114 20.7096 32 22.6414 32 24.823Z" fill="#FFA000"/>
</g>
<defs>
<filter id="filter0_d_1122_1044" x="-2.7" y="-2.7" width="37.4" height="37.4" filterUnits="userSpaceOnUse" color-interpolation-filters="sRGB">
<feFlood flood-opacity="0" result="BackgroundImageFix"/>
<feColorMatrix in="SourceAlpha" type="matrix" values="0 0 0 0 0 0 0 0 0 0 0 0 0 0 0 0 0 0 127 0" result="hardAlpha"/>
<feOffset/>
<feGaussianBlur stdDeviation="1.35"/>
<feComposite in2="hardAlpha" operator="out"/>
<feColorMatrix type="matrix" values="0 0 0 0 0.164706 0 0 0 0 0.352941 0 0 0 0 0.662745 0 0 0 0.3 0"/>
<feBlend mode="normal" in2="BackgroundImageFix" result="effect1_dropShadow_1122_1044"/>
<feBlend mode="normal" in="SourceGraphic" in2="effect1_dropShadow_1122_1044" result="shape"/>
</filter>
</defs>
</svg>
