<svg width="20" height="20" viewBox="0 0 20 20" fill="none" xmlns="http://www.w3.org/2000/svg">
<path d="M10 10H10.0083" stroke="#234C8E" stroke-width="1.5" stroke-linecap="round" stroke-linejoin="round"/>
<path d="M13.3333 5.00008V3.33341C13.3333 2.89139 13.1577 2.46746 12.8452 2.1549C12.5326 1.84234 12.1087 1.66675 11.6667 1.66675H8.33332C7.8913 1.66675 7.46737 1.84234 7.15481 2.1549C6.84225 2.46746 6.66666 2.89139 6.66666 3.33341V5.00008" stroke="#234C8E" stroke-width="1.5" stroke-linecap="round" stroke-linejoin="round"/>
<path d="M18.3333 10.8335C15.8607 12.466 12.9629 13.3362 9.99999 13.3362C7.03703 13.3362 4.13933 12.466 1.66666 10.8335" stroke="#234C8E" stroke-width="1.5" stroke-linecap="round" stroke-linejoin="round"/>
<path d="M16.6667 5H3.33332C2.41285 5 1.66666 5.74619 1.66666 6.66667V15C1.66666 15.9205 2.41285 16.6667 3.33332 16.6667H16.6667C17.5871 16.6667 18.3333 15.9205 18.3333 15V6.66667C18.3333 5.74619 17.5871 5 16.6667 5Z" stroke="#234C8E" stroke-width="1.5" stroke-linecap="round" stroke-linejoin="round"/>
</svg>
